<svg width="144" height="144" viewBox="0 0 144 144" fill="none" xmlns="http://www.w3.org/2000/svg">
<path d="M80.6943 64.3246V65.7375C80.8438 65.7239 80.9796 65.7103 81.1155 65.6831C80.8438 65.262 80.6943 64.8001 80.6943 64.3246ZM120.539 53.1035C120.552 53.2122 120.552 53.3345 120.552 53.4431V53.1171C120.552 53.1171 120.552 53.1035 120.539 53.1035Z" fill="white" stroke="#0038DF" stroke-width="0.65" stroke-linecap="round" stroke-linejoin="round"/>
<path d="M120.553 53.443V67.4762C119.452 68.4815 118.23 69.4732 116.871 70.4105C115.757 71.2121 114.548 71.9728 113.258 72.72L112.605 73.1004V67.3268C112.85 67.1366 113.081 66.9328 113.312 66.7426C114.956 65.357 116.328 63.9305 117.401 62.4634C119.507 59.6105 120.553 56.6083 120.553 53.443Z" fill="white" stroke="#0038DF" stroke-width="0.65" stroke-linecap="round" stroke-linejoin="round"/>
<path d="M64.909 47.031C64.909 48.1314 64.2162 49.0959 62.8033 49.911C61.4041 50.7125 59.7469 51.1201 57.8314 51.1201C55.9159 51.1201 54.2584 50.6989 52.8456 49.8839C51.4328 49.0688 50.7129 48.1042 50.7129 47.0039C50.7129 46.9359 50.7129 46.868 50.7129 46.8137C50.7672 45.7948 51.4735 44.8982 52.7912 44.1374C54.2041 43.3223 55.8614 42.9148 57.7769 42.9148C59.6788 42.9284 61.3499 43.3359 62.7627 44.151C62.8986 44.2325 63.0343 44.314 63.1565 44.3955C64.3112 45.1563 64.8954 46.0393 64.8954 47.031H64.909Z" fill="white" stroke="#0038DF" stroke-width="0.65" stroke-linecap="round" stroke-linejoin="round"/>
<path d="M120.552 53.443C120.552 56.6083 119.506 59.6105 117.4 62.4634C116.327 63.9305 114.955 65.357 113.311 66.7426C113.08 66.9328 112.849 67.1366 112.605 67.3268C109.276 65.357 106.451 63.2513 104.128 60.9826C101.805 58.7139 99.9843 56.2958 98.6666 53.7147C98.327 53.0626 98.0281 52.4105 97.7564 51.7313C96.8462 49.4898 96.3707 47.2619 96.2892 45.0339C96.1262 41.3252 97.1045 37.6166 99.2101 33.9351C91.263 36.9917 82.555 38.7713 73.0864 39.2875C63.6177 39.7902 54.4885 38.9886 45.6719 36.8558C53.8636 31.4626 64.0658 28.6505 76.2651 28.4332C88.4779 28.2158 98.9926 30.6475 107.823 35.7419C115.227 40.0347 119.411 45.1426 120.362 51.0928C120.47 51.772 120.525 52.4377 120.538 53.1034C120.552 53.212 120.552 53.3343 120.552 53.443Z" fill="white" stroke="#0038DF" stroke-width="0.65" stroke-linecap="round" stroke-linejoin="round"/>
<path d="M141.093 52.954C141.093 56.5133 140.183 60.0589 138.362 63.5638C137.833 64.5691 137.235 65.5608 136.569 66.5389C134.396 69.6906 131.434 72.6657 127.712 75.4778L127.236 75.7903L121.626 79.431C122.115 80.2053 122.359 80.9797 122.359 81.754C122.359 82.3382 122.224 82.9087 121.966 83.4929C121.436 84.6612 120.526 85.6801 119.235 86.5495C119.018 86.6989 118.8 86.8348 118.556 86.9706L112.606 90.4076L109.25 92.3367L107.131 93.5593C105.487 94.5238 103.476 95.1759 101.113 95.5291C98.7353 95.8823 96.3987 95.828 94.0621 95.3389L87.9897 98.8574C85.2455 100.433 81.9308 101.208 78.0319 101.208C74.1331 101.194 70.8046 100.406 68.0605 98.8167L33.0658 78.6159C31.6529 77.8008 30.9466 76.8363 30.9331 75.7359C30.9331 74.6355 31.6259 73.671 33.0387 72.8695C34.4516 72.0544 36.1089 71.6469 38.0108 71.6469C39.9263 71.6604 41.5836 72.068 42.9965 72.8831L77.9912 93.0838L80.6946 91.5216L87.8267 87.4053L94.8908 83.3299L98.7625 81.0884L112.606 73.1004L113.258 72.7201C114.548 71.9729 115.757 71.2121 116.871 70.4106C118.23 69.4733 119.452 68.4816 120.553 67.4763C120.987 67.0823 121.409 66.6748 121.802 66.2672C124.519 63.4552 126.313 60.4257 127.155 57.1789C127.535 55.6982 127.726 54.1767 127.712 52.6144C127.671 44.8031 122.781 38.0786 113.027 32.4544C103.286 26.8167 91.644 23.991 78.1134 23.9774C64.5693 23.9503 52.9678 26.7352 43.2817 32.3186L17.9458 46.9495C16.5465 47.7646 14.8893 48.1586 12.9738 48.1586C11.0584 48.1586 9.40096 47.751 7.98813 46.9359C5.24398 45.3465 3.85841 43.4174 3.84483 41.1759C3.83124 38.9208 5.18973 37.0053 7.9203 35.4295L17.8508 29.6831C19.5897 28.6914 21.668 27.9986 24.0725 27.6182C26.4771 27.2378 28.9225 27.2378 31.4221 27.6182L38.3776 24.0318C44.6674 21.1653 51.5278 19.1004 58.9587 17.8506C66.3897 16.5872 73.8478 16.071 81.3738 16.3019C88.8863 16.5329 96.1949 17.5518 103.313 19.3721C110.418 21.1789 116.803 23.7193 122.468 26.9933C128.133 30.2536 132.507 33.9352 135.605 38.0106C138.702 42.0997 140.495 46.311 140.971 50.6446C141.052 51.4053 141.093 52.1797 141.093 52.9404V52.954Z" fill="white" stroke="#0038DF" stroke-width="0.65" stroke-linecap="round" stroke-linejoin="round"/>
<path d="M141.093 80.3954V80.1237Z" fill="white"/>
<path d="M141.093 80.3954V80.1237" stroke="#0038DF" stroke-width="0.65" stroke-linecap="round" stroke-linejoin="round"/>
<path d="M141.093 52.9541V52.6553Z" fill="white"/>
<path d="M141.093 52.9541V52.6553" stroke="#0038DF" stroke-width="0.65" stroke-linecap="round" stroke-linejoin="round"/>
<path d="M122.359 81.754V81.6182Z" fill="white"/>
<path d="M122.359 81.754V81.6182" stroke="#0038DF" stroke-width="0.65" stroke-linecap="round" stroke-linejoin="round"/>
<path d="M141.093 52.9541V80.1239C141.093 83.6832 140.183 87.2288 138.362 90.7337C136.148 94.9994 132.589 98.9662 127.712 102.648L122.36 106.125V81.7541C122.36 80.9798 122.115 80.2054 121.626 79.4311L127.237 75.7903L127.712 75.4779C131.434 72.6658 134.396 69.6907 136.569 66.539C137.235 65.5609 137.832 64.5692 138.362 63.5639C140.183 60.059 141.093 56.5133 141.093 52.9541Z" fill="white" stroke="#0038DF" stroke-width="0.65" stroke-linecap="round" stroke-linejoin="round"/>
<path d="M122.36 81.7544V108.951C122.36 109.522 122.224 110.093 121.966 110.663C121.355 112.022 120.214 113.19 118.556 114.141L107.131 120.729C105.487 121.694 103.477 122.346 101.113 122.699C98.7358 123.053 96.3991 122.998 94.0625 122.509V95.3393C96.3991 95.8284 98.7358 95.8827 101.113 95.5295C103.477 95.1763 105.487 94.5242 107.131 93.5597L109.251 92.337L112.606 90.408L118.556 86.971C118.801 86.8351 119.018 86.6993 119.235 86.5499C120.526 85.6804 121.436 84.6616 121.966 83.4933C122.224 82.9091 122.36 82.3385 122.36 81.7544Z" fill="white" stroke="#0038DF" stroke-width="0.65" stroke-linecap="round" stroke-linejoin="round"/>
<path d="M94.0626 95.3387V122.509L87.9902 126.027C85.246 127.603 81.9315 128.377 78.0326 128.377C74.1337 128.364 70.8053 127.576 68.0611 125.986L33.0664 105.786C31.6536 104.97 30.9472 104.006 30.9336 102.906V75.7357C30.9472 76.8361 31.6536 77.8006 33.0664 78.6157L68.0611 98.8165C70.8053 100.406 74.1337 101.194 78.0326 101.207C81.9315 101.207 85.246 100.433 87.9902 98.8572L94.0626 95.3387Z" fill="white" stroke="#0038DF" stroke-width="0.65" stroke-linecap="round" stroke-linejoin="round"/>
<path d="M127.712 52.6144C127.712 54.1767 127.535 55.6982 127.155 57.1789C126.313 60.4257 124.519 63.4552 121.802 66.2672C121.408 65.8461 120.987 65.4386 120.553 65.031V53.117C120.553 53.117 120.553 53.1035 120.539 53.1035C120.525 52.4378 120.471 51.7721 120.362 51.0929C119.411 45.1427 115.227 40.0348 107.823 35.742C98.9933 30.6476 88.4786 28.2159 76.2658 28.4333C64.0665 28.6506 53.8642 31.4627 45.6725 36.8559V58.1978C44.8574 58.6053 44.0695 59.0401 43.2816 59.4884L17.9458 74.1193C16.5465 74.9344 14.8891 75.3284 12.9737 75.3284C11.0583 75.3284 9.40084 74.9208 7.98801 74.1057C5.24386 72.5163 3.85831 70.5872 3.84473 68.3457V41.1759C3.84473 43.4174 5.24386 45.3465 7.98801 46.9359C9.40084 47.751 11.0719 48.1586 12.9737 48.1586C14.8756 48.1586 16.5465 47.7646 17.9458 46.9495L43.2816 32.3186C52.9676 26.7352 64.5691 23.9503 78.1133 23.9775C91.6439 23.9911 103.286 26.8167 113.027 32.4544C122.781 38.0786 127.671 44.8031 127.712 52.6144Z" fill="white" stroke="#0038DF" stroke-width="0.65" stroke-linecap="round" stroke-linejoin="round"/>
<path d="M94.8906 64.3517V64.3789C94.8906 65.4657 94.1843 66.4166 92.7986 67.2181C91.3858 68.0332 89.7283 68.4408 87.8128 68.4272C85.9109 68.4272 84.24 68.0196 82.8272 67.2045C82.0257 66.7426 81.4551 66.24 81.1155 65.683C80.8438 65.2619 80.6943 64.8 80.6943 64.3245C80.6943 63.2242 81.3873 62.2596 82.8001 61.4445C84.1994 60.6294 85.8702 60.2355 87.7721 60.2355C89.674 60.2355 91.345 60.643 92.7579 61.4717C93.4643 61.8792 93.9941 62.314 94.3473 62.7894C94.7141 63.2649 94.8906 63.7947 94.8906 64.3517Z" fill="white" stroke="#0038DF" stroke-width="0.65" stroke-linecap="round" stroke-linejoin="round"/>
<path d="M94.8906 64.3792V83.3301L87.8264 87.4056L80.6943 91.5218V65.7376C80.8438 65.7241 80.9796 65.7105 81.1155 65.6833C81.4551 66.2403 82.0257 66.7429 82.8272 67.2048C84.24 68.0199 85.9109 68.4275 87.8128 68.4275C89.7283 68.441 91.3858 68.0335 92.7986 67.2184C94.1843 66.4169 94.8906 65.4659 94.8906 64.3792Z" fill="white" stroke="#0038DF" stroke-width="0.65" stroke-linecap="round" stroke-linejoin="round"/>
<path d="M64.909 47.0311V74.2009C64.909 75.3013 64.2162 76.2658 62.8033 77.0809C61.4041 77.8824 59.7469 78.2899 57.8314 78.2899C55.9159 78.2899 54.2584 77.8688 52.8456 77.0537C51.4328 76.2386 50.7129 75.2741 50.7129 74.1737V47.0039C50.7129 48.1043 51.4328 49.0688 52.8456 49.8839C54.2584 50.699 55.9159 51.1201 57.8314 51.1201C59.7469 51.1201 61.4041 50.7126 62.8033 49.9111C64.2162 49.096 64.909 48.1315 64.909 47.0311Z" fill="white" stroke="#0038DF" stroke-width="0.65" stroke-linecap="round" stroke-linejoin="round"/>
<path d="M120.553 53.1172V52.6553Z" fill="white"/>
<path d="M120.553 53.1172V52.6553" stroke="#0038DF" stroke-width="0.65" stroke-linecap="round" stroke-linejoin="round"/>
<path d="M96.2903 45.0338H96.2767V62.1644C95.6382 62.3817 94.9999 62.5855 94.3478 62.7893C93.9946 62.3138 93.4648 61.8791 92.7583 61.4715C91.3455 60.6429 89.688 60.2353 87.7726 60.2353C85.8571 60.2353 84.1999 60.6293 82.8006 61.4444C81.3878 62.2595 80.6948 63.224 80.6948 64.3244V65.7372C78.2224 66.0768 75.6821 66.3214 73.0874 66.4572C70.3297 66.6066 67.6127 66.6338 64.9093 66.5659V47.0308C64.9093 46.0391 64.325 45.1561 63.1703 44.3953C63.048 44.3138 62.9122 44.2323 62.7763 44.1508C61.3635 43.3357 59.6927 42.9281 57.7908 42.9146C55.8753 42.9146 54.2178 43.3221 52.805 44.1372C51.4873 44.898 50.7809 45.7946 50.7265 46.8134C50.7265 46.8678 50.7265 46.9357 50.7265 47.0036V65.0851C49.0284 64.7863 47.3575 64.4331 45.6865 64.0255V36.8557C54.5031 38.9885 63.6323 39.79 73.101 39.2874C82.5697 38.7712 91.2776 36.9915 99.2248 33.9349C97.1191 37.6164 96.1409 41.3251 96.3039 45.0338H96.2903Z" fill="white" stroke="#0038DF" stroke-width="0.65" stroke-linecap="round" stroke-linejoin="round"/>
<path d="M112.605 67.3269V73.1005L98.7625 81.0884C98.3957 80.3684 98.056 79.6484 97.7571 78.9012C96.8198 76.5646 96.3307 74.2552 96.2764 71.9322V45.0341H96.2899C96.3715 47.262 96.8469 49.4899 97.7571 51.7314C98.0288 52.4107 98.3277 53.0627 98.6673 53.7148C99.985 56.2959 101.805 58.7141 104.128 60.9827C106.451 63.2514 109.277 65.3571 112.605 67.3269Z" fill="white" stroke="#0038DF" stroke-width="0.65" stroke-linecap="round" stroke-linejoin="round"/>
<path d="M96.2764 72.204V71.9323Z" fill="white"/>
<path d="M96.2764 72.204V71.9323" stroke="#0038DF" stroke-width="0.65" stroke-linecap="round" stroke-linejoin="round"/>
</svg>
